<svg width="24" height="24" viewBox="0 0 24 24" fill="none" xmlns="http://www.w3.org/2000/svg">
<path fill-rule="evenodd" clip-rule="evenodd" d="M1.96266 2.54216C2.49165 2.38346 3.04913 2.68365 3.20783 3.21264L3.74403 4.99999H22C22.3161 4.99999 22.6136 5.14945 22.8023 5.40306C22.991 5.65667 23.0487 5.98456 22.9578 6.28734L19.9578 16.2873C19.8309 16.7103 19.4416 17 19 17H6C5.5584 17 5.16907 16.7103 5.04218 16.2873L1.29218 3.78734C1.13348 3.25834 1.43366 2.70086 1.96266 2.54216ZM4.34403 6.99999L6.74403 15H18.256L20.656 6.99999H4.34403ZM8 18.5C8.55229 18.5 9 18.9477 9 19.5C9 19.6326 9.05268 19.7598 9.14645 19.8535C9.24022 19.9473 9.3674 20 9.5 20C9.63261 20 9.75979 19.9473 9.85356 19.8535C9.94733 19.7598 10 19.6326 10 19.5C10 18.9477 10.4477 18.5 11 18.5C11.5523 18.5 12 18.9477 12 19.5C12 20.163 11.7366 20.7989 11.2678 21.2678C10.7989 21.7366 10.163 22 9.5 22C8.83696 22 8.20108 21.7366 7.73224 21.2678C7.2634 20.7989 7 20.163 7 19.5C7 18.9477 7.44772 18.5 8 18.5ZM14 18.5C14.5523 18.5 15 18.9477 15 19.5C15 19.6326 15.0527 19.7598 15.1465 19.8535C15.2402 19.9473 15.3674 20 15.5 20C15.6326 20 15.7598 19.9473 15.8536 19.8535C15.9473 19.7598 16 19.6326 16 19.5C16 18.9477 16.4477 18.5 17 18.5C17.5523 18.5 18 18.9477 18 19.5C18 20.163 17.7366 20.7989 17.2678 21.2678C16.7989 21.7366 16.163 22 15.5 22C14.837 22 14.2011 21.7366 13.7322 21.2678C13.2634 20.7989 13 20.163 13 19.5C13 18.9477 13.4477 18.5 14 18.5Z" fill="#292C39"/>
</svg>
